<svg xmlns="http://www.w3.org/2000/svg" viewBox="0 0 63.8 54.9125" x="0px" y="0px"><title>자산 11</title><g data-name="레이어 2" fill="white"><g data-name="레이어 1"><path d="M15.68,34.69,14.47,35a14.68,14.68,0,0,1-7.33.18A9,9,0,0,1,1.35,31.4C-.4,28.66-.28,25.74.75,22.83a11.13,11.13,0,0,1,6.09-6.34A17.57,17.57,0,0,1,12,14.89c.35-.05.69-.15,1-.2A37.34,37.34,0,0,1,14,10.58,16.45,16.45,0,0,1,23.09.82,11.61,11.61,0,0,1,25.24.16,7.2,7.2,0,0,1,33,3.53a13.91,13.91,0,0,1,.63,1.33,10.06,10.06,0,0,0,1-.48A10.52,10.52,0,0,1,40,2.89,17.83,17.83,0,0,1,54.19,9.65a6.63,6.63,0,0,1,1.54,3.83c.06.74,0,.88,1.06,1.17a17.54,17.54,0,0,1,2.82,1,6.16,6.16,0,0,1,2.81,2.72,11.61,11.61,0,0,1-3.68,15.05,12.19,12.19,0,0,1-5.45,1.8l-1.59.17c0,.37,0,.71.09,1.05a3.94,3.94,0,0,1-2.86,4.37,20,20,0,0,1-4,.68,6.92,6.92,0,0,1-4.65-1.69l-2.55-1.94a9.81,9.81,0,0,0-.58.81,10.12,10.12,0,0,1-6.38,4.74c-5.31,1.46-9.64-.28-13.28-4.16A6.29,6.29,0,0,1,16,36.19C15.92,35.71,15.8,35.23,15.68,34.69ZM33.13,30.3c1.13-.24,2.06-.48,3-.62,1.19-.19,1.53.06,2.07,1.19a2.29,2.29,0,0,0,.84,1,14.29,14.29,0,0,1,2.81,2.14c1.06,1,2.16,1.88,3.26,2.78a3.23,3.23,0,0,0,1,.56.55.55,0,0,0,.81-.55,2,2,0,0,0-.08-.74,3.83,3.83,0,0,0-2-2.61C43.23,32.7,43,32,43.14,30.4a.83.83,0,0,1,.8-.82c.74-.13,1.48-.25,2.2-.45a2.12,2.12,0,0,1,2.17.45,10,10,0,0,0,4.11,2,3.22,3.22,0,0,0,3.07-.79,12.17,12.17,0,0,0,3.21-5,5.76,5.76,0,0,0-3.91-7.37,2.6,2.6,0,0,0-2.14.21,10.56,10.56,0,0,1-5.59,1.27c-1,0-1.66-.52-1.72-1.42-.14-2-.05-2.59,1.81-3.26a33,33,0,0,1,4-.92c.34-.08.68-.13,1-.2a4.1,4.1,0,0,0-1-3.47A14.41,14.41,0,0,0,39.91,4.88a7.11,7.11,0,0,0-3.64.77,11.23,11.23,0,0,1-1.68.7c-.85.27-1.73.57-2.47-.29C32,6,31.85,6,31.73,5.9c-.49-.28-1-.55-1.46-.86-.93-.61-1.82-1.28-2.76-1.86a2.48,2.48,0,0,0-2.83,0c-.6.39-1.24.73-1.81,1.15a14.87,14.87,0,0,0-4.77,6.24,20.59,20.59,0,0,0-1,3.38,1.09,1.09,0,0,0,.49,1.31,4,4,0,0,1,1.53,2.27c.24.57.1.93-.48,1.1-1.54.45-3.08.94-4.7.26a3.34,3.34,0,0,0-2.7,0,10.36,10.36,0,0,0-4.79,4,8,8,0,0,0-1.26,4.28,4.22,4.22,0,0,0,2,3.79,7.86,7.86,0,0,0,3.73,1.25,3.56,3.56,0,0,0,2.92-.77c1.24-1.17,2.83-1.27,4.34-1.63a1.29,1.29,0,0,1,1.51.75,5,5,0,0,1,.55,2.05c.11,1.64.27,3.29,1.49,4.6a11.89,11.89,0,0,0,4.72,3.07,4,4,0,0,0,4.66-1.17c1.68-1.9,2.81-4,2.11-6.65A10.67,10.67,0,0,1,33.13,30.3Z"/></g></g></svg>