<svg xmlns="http://www.w3.org/2000/svg" data-name="Layer 1" viewBox="0 0 100 125" x="0px" y="0px"  fill="white"><title>Other 2</title><path d="M25.82,22.87a.46.46,0,0,0,.08.36A345.71,345.71,0,0,0,64.72,67.59a.94.94,0,0,0,.55.26,1.05,1.05,0,0,0,1.81.29,42,42,0,0,0,15.18,1.48,1.07,1.07,0,0,0,.82-.55.9.9,0,0,0,.06-.81c-.05-.11-.06-.34-.1-.45a1.91,1.91,0,0,1-.1-.6,3.14,3.14,0,0,0-.18-.69q-.2-.69-.41-1.38-.43-1.39-.9-2.76t-1-2.75q-.52-1.37-1.08-2.73t-1.14-2.7q-.58-1.34-1.19-2.67t-1.22-2.62l-.23-.49A.68.68,0,0,0,75,48a1.51,1.51,0,0,0-.17-.19c-12.74-11.15-25-22.78-37.7-34a.75.75,0,0,0-.37-.18c-.12-.53-.65-.95-1.19-.54A64.76,64.76,0,0,0,25.75,22,.61.61,0,0,0,25.82,22.87ZM77.26,58.74a26.45,26.45,0,0,0-4,8.46Q70.64,67,68,66.6c2.75-4.94,4.68-10.71,6.55-16C75.4,53.29,76.29,56,77.26,58.74ZM33,17.29c9.92,14.64,24.31,26.22,37.34,38q-.91,1.93-1.8,3.87c-6.75-6.09-13.43-12.24-20-18.55C41.81,34.11,35.14,27.67,30,19.82Q31.48,18.54,33,17.29Zm3.1-2.45v0c11.38,12.42,24,23.91,36.76,34.94q-.87,1.94-1.8,3.89A459.45,459.45,0,0,1,33.52,16.85Q34.78,15.82,36.09,14.84Zm-6.9,5.71C33.38,28.25,39.8,34.3,46,40.36q10.7,10.39,21.74,20.42c-.73,1.66-1.41,3.34-2,5a449.17,449.17,0,0,1-38.88-43.2Z"/><path d="M88.77,71c-.31-.75-1.55-.45-1.25.34C89.87,77.59,88.67,85,80.71,85c-4.77,0-9.28-2.18-13.17-4.75-5.92-3.91-10.86-9.2-17.11-12.62a27.05,27.05,0,0,0-17.09-3.18,26.72,26.72,0,0,0-9,3c-4.59,2.54-7.64,5.13-13.3,3.06-1.37-.5-1.87,1.6-.59,2.14,3.42,1.44,6.25,2.05,9.68.36,5.24-2.58,8.85-5.91,15-6.48,11.27-1,19.06,6.39,27.35,12.73,5.72,4.37,13,8.88,20.52,7.46C91.09,85.27,91.42,77.28,88.77,71Z"/></svg>