<svg xmlns="http://www.w3.org/2000/svg" data-name="Layer 1" viewBox="0 0 5 6.25" x="0px" y="0px"  fill="white"><title >icon</title><path d="M4.17448,2.07388a.2136.2136,0,0,0-.139-.06594.80782.80782,0,0,0-.35471.06547c-.03151.01114-.06273.02312-.09382.03556q.07168-.05763.1412-.11786a.04071.04071,0,0,0-.03155-.07122.58194.58194,0,0,0-.25008.11344c-.08533.05583-.16506.10729-.24905.16877l-.03328.02456q.07789-.12187.15412-.24491c.04676-.07553.09087-.15263.13807-.22782.03282-.05225.06591-.10431.09634-.15806A1.04224,1.04224,0,0,0,3.642,1.4036a.24281.24281,0,0,0,.00622-.16948.14727.14727,0,0,0-.17989-.067.71417.71417,0,0,0-.24211.13547q-.04653.03568-.09106.07385a.43682.43682,0,0,0-.056-.14346.41083.41083,0,0,0-.41755-.15092,1.16874,1.16874,0,0,0-.54206.24086q-.02784.0207-.05491.04249-.03973-.01893-.08023-.03609a1.21294,1.21294,0,0,0-.51976-.111.48386.48386,0,0,0-.38607.1912A.43317.43317,0,0,0,1.033,1.744a1.20513,1.20513,0,0,0,.15035.35556,2.36253,2.36253,0,0,0,.133.20015,2.8938,2.8938,0,0,0-.21591.48065.68119.68119,0,0,0-.031.11859Q1.02548,2.9574.984,3.01739A2.47289,2.47289,0,0,0,.82227,3.284c-.0227.04372-.04384.08844-.06236.13407a.15192.15192,0,0,0-.00937.11024c.025.06605.11461.0523.16748.03967.08473-.02021.16875-.049.25116-.07686a4.96179,4.96179,0,0,0,.617-.26l-.01382.0443c-.008.02676-.015.05375-.02168.08088l-.00081.00716q-.092.10139-.17719.20875a.04277.04277,0,0,0,.00163.052.04336.04336,0,0,0,.06012.006,6.182,6.182,0,0,0,.53109-.43807l.0667-.06006c.06163.037.12479.07171.18939.10348-.22253.34308-.44127.68923-.68675,1.01661a.03939.03939,0,0,0,.03745.06142.1426.1426,0,0,0,.077-.03293.03775.03775,0,0,0,.00274-.05637c.2248-.31031.42815-.63541.635-.95791a2.0664,2.0664,0,0,0,.26636.09973,1.05868,1.05868,0,0,0,.38687.04444.57949.57949,0,0,0,.13723-.02715c-.003.033.04877.03777.05424.004L3.336,3.35844a.25755.25755,0,0,0,.10858-.10315.36454.36454,0,0,0-.00409-.31237l.007-.00309a1.74455,1.74455,0,0,0,.26688-.14773,2.32453,2.32453,0,0,0,.30124-.234.57433.57433,0,0,0,.20314-.32429A.20833.20833,0,0,0,4.17448,2.07388Zm-3.01585.919L1.1533,2.98909,1.153,2.98886l-.00037-.00042-.00445-.00552L1.1475,2.98156l-.00323-.00751L1.14366,2.9726l-.00319-.02089L1.14013,2.9454l.00016-.00718.00013-.00278c.07837-.105.16241-.2059.24917-.30376q.05142-.058.10557-.11374c.06665.07337.13711.14359.20949.211q-.0463.03642-.09393.07092a1.44606,1.44606,0,0,1-.24777.14687.66941.66941,0,0,1-.12357.04437l-.03017.0058a.14957.14957,0,0,1-.02022.00173l-.02138-.00225C1.17541,2.99784,1.15346,2.98942,1.15863,2.9929ZM1.7103,2.639c-.057-.05457-.11287-.11112-.16671-.16976A2.661,2.661,0,0,1,1.753,2.28339q-.00454.02724-.00741.05467a.80558.80558,0,0,0,.03454.3297l-.02091.01731Zm.45113-1.152q.07073.04038.13819.086l-.00578.00191a.76747.76747,0,0,0-.33984.25919.99722.99722,0,0,0-.175.336,2.55893,2.55893,0,0,0-.28529.24354q-.04889-.05591-.09475-.11422.05407-.09634.114-.1892a3.32642,3.32642,0,0,1,.37329-.48191A2.33671,2.33671,0,0,1,2.081,1.44326Q2.12178,1.46444,2.16143,1.487Zm.78626.45533a.58418.58418,0,0,0-.05637-.02553A.70762.70762,0,0,0,2.756,1.879l-.012-.01273.00012-.00015c.106-.12227.21462-.24306.33209-.35486a1.0856,1.0856,0,0,1-.11283.397Zm.08292.16443A.27136.27136,0,0,1,3.072,2.1973a.33828.33828,0,0,1,.0073.04248l-.0218.03329q-.054-.08754-.11536-.17051L2.97274,2.047A.31669.31669,0,0,1,3.03061,2.10679Zm-.00645.69715-.00444.01483a.24472.24472,0,0,1-.01441.03471l-.00089.0015-.00428.007-.00922.01331-.01.0123-.00049.00056-.00723.00692a.19877.19877,0,0,1-.02421.019l-.00232.00148-.00426.00236-.01623.008-.0145.00587L2.9,2.93576l-.03053.00639c-.01116.00175-.02243.00278-.0337.00342l-.00421.00021-.0061,0c-.00692,0-.0138-.00021-.02072-.00054a.48491.48491,0,0,1-.07674-.01055l-.0094-.00211L2.71737,2.9323l-.00183-.00047-.00966-.00253q.09957-.152.19956-.30386a.56058.56058,0,0,0,.10219-.06451l.00129.00089.00463.01576a.58489.58489,0,0,1,.0193.1242c.00061.01071.00054.00943.00051.0181,0,.00755-.00026.01516-.00063.02276a.37661.37661,0,0,1-.00524.04554l-.00192.00973Zm-.44723.07485L2.56765,2.874l-.0018-.00094L2.564,2.8721l-.01825-.01043-.00741-.0044q.07119-.063.14319-.12518L2.69679,2.719l.06891-.04205.03038-.00856q-.07922.1189-.15832.238C2.61707,2.89815,2.59682,2.88889,2.57692,2.87879Zm-.3413.13734-.00217-.0007-.00054-.00019L2.285,2.9719ZM1.84926,2.2108l.00215-.00154a1.43965,1.43965,0,0,1,.55948-.25137l.04486-.00754a.8746.8746,0,0,1-.07728.12669.3288.3288,0,0,0-.23507.15857.27473.27473,0,0,0-.02928.13423l-.0727.069c-.06266.05906-.12834.11529-.19354.17152L1.84635,2.6044c-.00421-.0167-.00779-.03357-.011-.05052a.79733.79733,0,0,1-.01347-.12124A.75327.75327,0,0,1,1.84926,2.2108Zm.36789-.51666.00589-.0036.00923-.00538.019-.01039c.01394-.00737.02813-.01406.04259-.02024a.29048.29048,0,0,1,.07721-.0237l.00828-.00124q.06434.04777.1253.1l.00143.0153a.351.351,0,0,1-.01857.127q-.03175.00342-.063.00855a1.45331,1.45331,0,0,0-.53519.215.98353.98353,0,0,1,.086-.1593.8732.8732,0,0,1,.1747-.19356A.69248.69248,0,0,1,2.21715,1.69414Zm-.02063.74429-.00043-.00126-.002-.00763a.2665.2665,0,0,1-.006-.03532,2.25623,2.25623,0,0,0,.22662-.25151l.02039-.00247q-.04554.05926-.09021.11918l-.01558.02079-.023.01051a.20326.20326,0,0,0-.102.16064l-.00209.003-.0004-.00092Zm.00256-.15219a.19618.19618,0,0,1,.03277-.05506.23339.23339,0,0,1,.06544-.05126C2.26583,2.21649,2.23294,2.25179,2.19908,2.28624Zm.16349.06308.00667-.00226.011-.0026a.2781.2781,0,0,1,.09157-.00423.78092.78092,0,0,1,.19729.04613c-.063.08193-.12967.16078-.19874.23745l-.01965-.00295-.03539-.00716-.00051-.00012L2.41291,2.6131l-.00856-.00227L2.38481,2.605A.43466.43466,0,0,1,2.3196,2.5783L2.316,2.57638l-.005-.00276-.0138-.00842-.00981-.00657c-.00274-.01144-.00483-.023-.00642-.03464l-.002-.01881L2.2785,2.49568l-.00011-.00206V2.49288a.2664.2664,0,0,1,.00155-.03052q.04016-.05672.081-.11246Zm.24391.279-.00542.00044-.0193.00094L2.57212,2.63l-.00049,0-.00271,0H2.56019l.03141-.03621q.076-.08848.14656-.18145a1.19858,1.19858,0,0,1,.11945.05685Q2.72984,2.54515,2.60648,2.62828Zm-.10967.07279.00426.00033L2.48773,2.711ZM2.3335,2.66418a.567.567,0,0,0,.0784.02353l-.034.03616A.53683.53683,0,0,1,2.3335,2.66418Zm.589-.246L2.9152,2.41405c-.042-.02362-.08558-.04563-.13026-.0653q.02214-.03105.04357-.06257a.66156.66156,0,0,1,.106.122Zm-.20478-.09672a.98242.98242,0,0,0-.21242-.05458.50044.50044,0,0,0-.0799-.00468c.03048-.04116.06124-.08215.0926-.12259a.45467.45467,0,0,1,.1729.05168.60818.60818,0,0,1,.083.05071Q2.74647,2.28216,2.71777,2.32146Zm-.51868.25816.021.01939a.509.509,0,0,0,.10408.17975l.00056.00065q-.07633.07887-.15476.15578L2.11683,2.965,2.11339,2.963l-.01906-.01137a.59566.59566,0,0,1-.06424-.04577L2.0156,2.89361l-.004-.00367A3.53325,3.53325,0,0,1,2.19909,2.57963Zm.80946-.23187-.01614.01305a.7237.7237,0,0,0-.04984-.06371A.77023.77023,0,0,0,2.86938,2.224q.01832-.02875.036-.05813l.00744.01023q.05515.07654.105.15771Zm-.194-.16718a.59973.59973,0,0,0-.24487-.10631L2.578,2.064q.04944-.06075.1-.1206c.01764.00172.03516.00392.05263.00688q.068.07536.12988.1557Q2.83818,2.14374,2.81455,2.18058Zm-.27724-.16909-.04507.0556q-.01224-.00024-.02451.00014a.85608.85608,0,0,0,.06788-.12549q.03088-.00209.06184-.00212Q2.56721,1.97541,2.53732,2.01149Zm-.41663.44775.00525-.005a.29214.29214,0,0,0,.02908.06795c-.06962.10156-.13571.20585-.1948.31358-.01146-.01392-.02216-.02835-.03228-.04327l-.00942-.01445-.00778-.01312c-.00744-.01291-.01424-.0262-.02071-.0396s-.01241-.0272-.01789-.04107C1.95731,2.61177,2.04,2.5361,2.12069,2.45924Zm.77583-.41662q-.0253-.0321-.05155-.06337l.01955.00716a.46028.46028,0,0,1,.04989.02264Zm-.33459-.17614a.43168.43168,0,0,0,.01336-.07376q.03926.03631.07681.0744C2.62206,1.8655,2.59193,1.86533,2.56192,1.86649ZM2.03329,3.01113q-.05366.02926-.1077.05782.02249-.05235.04754-.10352A.59982.59982,0,0,0,2.03329,3.01113Zm.44454.049a1.12642,1.12642,0,0,1-.14523-.0186q.07276-.06568.14576-.131a.78971.78971,0,0,0,.11615.06112l-.05992.09082C2.51568,3.06216,2.49676,3.06132,2.47784,3.06017Zm.004.083-.02047.03137q-.04077-.01954-.08072-.0407C2.41412,3.13839,2.448,3.14145,2.48183,3.14318Zm.18-.14661a.45225.45225,0,0,0,.27368.00847.265.265,0,0,0,.17285-.23561.52581.52581,0,0,0-.00351-.13571,1.16056,1.16056,0,0,1,.101.0933,1.62372,1.62372,0,0,1,.05565.20115q-.033.012-.06643.02311a2.302,2.302,0,0,1-.35688.08785c-.06163.01-.12371.01712-.186.021l-.03289.00168Zm.64294-.148c.01116.01647.0217.03361.03139.05122l-.01838.00727Q3.31188,2.87766,3.30481,2.84857Zm-.232-.33585L3.06864,2.502A.3607.3607,0,0,0,3.094,2.4686q.02424.04645.046.09417C3.11811,2.54541,3.09563,2.52876,3.07282,2.51271Zm.17033-1.14813q.03108-.025.06343-.0483l.02949-.02067.0146-.00957.00723-.00461.00678-.00422a.50345.50345,0,0,1,.10951-.05194L3.475,1.225l.00589-.00154.01181-.00271.02454-.0034.0051-.00029.01034.00046.01008.0012.00494.00092.00023,0,.00049.00015.01752.00676.00384.00237.00921.00685.00185.00148.00138.00143.007.00793.00409.00571c-.00362-.00543.00087.00187.00124.00264l.0033.0073.00243.0073a.27013.27013,0,0,1-.02821.15808,1.304,1.304,0,0,1-.09658.184c-.028.046-.0581.09052-.08605.13653-.057.09385-.11449.18737-.1735.28q-.03933.0617-.07915.12323a.35454.35454,0,0,0-.05847-.1058.36564.36564,0,0,0-.0709-.06653A1.51445,1.51445,0,0,0,3.127,1.652a.71036.71036,0,0,0,.01775-.20376Q3.19279,1.40521,3.24315,1.36458ZM2.349,1.25944a.98339.98339,0,0,1,.27144-.09964.52568.52568,0,0,1,.25579.00333.26354.26354,0,0,1,.14684.111.3683.3683,0,0,1,.03642.08326.43871.43871,0,0,1,.01368.07376,4.83654,4.83654,0,0,0-.35892.37344l-.01441.01636q-.06207-.06224-.12822-.12a.17224.17224,0,0,0-.10229-.13547.19032.19032,0,0,0-.08243-.01088A2.09893,2.09893,0,0,0,2.13437,1.4,1.5,1.5,0,0,1,2.349,1.25944Zm-1.26923.37849A.34937.34937,0,0,1,1.104,1.48629a.30366.30366,0,0,1,.10266-.12558.59619.59619,0,0,1,.47047-.06564,1.45583,1.45583,0,0,1,.335.11412,2.67388,2.67388,0,0,0-.31374.326,3.61942,3.61942,0,0,0-.34675.50184,2.05294,2.05294,0,0,1-.15941-.2521A.85584.85584,0,0,1,1.07977,1.63794Zm.14247,1.026a3.28751,3.28751,0,0,1,.14208-.30117l.02021.02561q.02977.03719.061.07344-.0387.0394-.07619.07995-.09206.09925-.17892.20382Q1.20554,2.70445,1.22224,2.66395Zm-.39629.83181c.0044.00571.00165.0032,0,0Zm.50194-.1489q-.15651.06147-.3177.10982c-.03489.01048-.06178.01944-.0924.02739-.01516.004-.03051.00739-.046.01l-.021.00257-.00742.00047c.00587-.00033-.00516-.0003-.00708-.00047l-.0082-.001H.828l-.0023-.00082-.0004-.00189L.82537,3.4915a.34585.34585,0,0,1,.04209-.11344,2.19971,2.19971,0,0,1,.147-.262q.03289-.0508.06777-.10034a.10822.10822,0,0,0,.02985.035.14264.14264,0,0,0,.099.02063.494.494,0,0,0,.1307-.03621,1.03136,1.03136,0,0,0,.127-.05957,1.89774,1.89774,0,0,0,.25047-.16717L1.75816,2.778l.00253.00229q.0769.06943.15809.13386c-.03424.06741-.06555.13622-.093.20658C1.66328,3.20353,1.49781,3.28011,1.32789,3.34686Zm.62646-.2019-.04009.03892-.05111.04984.01721-.05019Zm.04535.08172q.07552-.07347.15446-.14329l.00387.00248-.01484.01333Q2.07189,3.16341,1.9997,3.22669ZM3.2359,3.318c.00451-.00136-.00484.00136-.00557.00152l-.02079.00508c-.01551.00344-.03113.00608-.04682.00828-.01485.00206-.02982.00351-.04479.00463-.01579.00119-.03338.00182-.04372.00192a1.02846,1.02846,0,0,1-.18782-.01656,1.33676,1.33676,0,0,1-.21427-.06053q-.07378-.0261-.14528-.05775l.035-.05429L2.56534,3.145c.05719-.00042.114-.00393.16946-.00964A2.27724,2.27724,0,0,0,3.276,3.00911,1.40926,1.40926,0,0,1,3.29,3.14945a1.1574,1.1574,0,0,1-.00264.14909l-.00217.001a.36062.36062,0,0,1-.041.016Zm.1602-.14385-.00161.00643-.003.00947-.00718.01806-.00276.00578-.00283.00536-.01212.01806-.01088.01326-.0095.00924-.00089.00075a1.35605,1.35605,0,0,0-.01324-.27252l.03805-.01523a.50283.50283,0,0,1,.02935.115A.24148.24148,0,0,1,3.39609,3.1742Zm.73872-1.01008.00161.006.00229.01227.002.01858.00012.00458-.00019.00689a.234.234,0,0,1-.00489.03716l-.0015.00631-.00283.00946-.00664.01889a.35832.35832,0,0,1-.0175.03844l-.00337.00616-.00557.0094L4.08651,2.357c-.00908.01386-.01883.02723-.02893.0403a.99131.99131,0,0,1-.13842.14177c-.05052.044-.10385.08493-.15826.12408-.043.03092-.08687.06046-.13084.08993l-.01226.00809-.00159.00105-.00594.00355-.03214.01878c-.02194.01249-.04416.02435-.06664.03583-.03452.01768-.06959.0342-.10509.04987-.01376-.02563-.02858-.05-.04365-.07251a.94113.94113,0,0,0-.11643-.1406,2.01058,2.01058,0,0,0-.09915-.22537q.07557-.05116.14988-.10393c.08261-.03944.16609-.07692.25018-.1134.04722-.02055.09475-.0403.14305-.05836q.04238-.01584.08558-.02956L3.797,2.12l.00217-.00068.00161-.00046.01067-.003.04622-.01181a.77.77,0,0,1,.08692-.01519c.01322-.00152.02645-.00246.03972-.00295l.001,0,.00136,0,.00945.00012.02149.00112a.26784.26784,0,0,1,.03473.00505l.00063.00011.00023.00008.00793.00232.01766.00657.00718.00324.00094.00047.01219.008.01008.00814c-.00522-.00449.0062.007.00828.00962l.00718.01023L4.13,2.15182Z" fill="white"/></svg>